<svg width="61" height="56" viewBox="0 0 61 56" fill="none" xmlns="http://www.w3.org/2000/svg">
<path d="M24.8011 29.1739L30.201 28.0591L39.2159 1L60 16.0932V35.5466V55H39.2159H29.8295L12.0625 50.6398L1 43.5963L24.8011 29.1739Z" fill="#FD665E"/>
<path d="M39.2159 55C33.2936 54.5528 23.125 48.7615 29.8295 29.1739L39.2159 1L60 16.0932M39.2159 55L45.9205 40.5776M39.2159 55H29.8295L12.0625 50.6398L1 43.5963L24.8011 29.1739L45.9205 24.8137M39.2159 55H60V35.5466M45.9205 40.5776V24.8137M45.9205 40.5776L60 35.5466M45.9205 24.8137L60 16.0932M60 16.0932V35.5466" stroke="#F0F0F0"/>
</svg>
