<svg width="39" height="48" viewBox="0 0 39 48" fill="none" xmlns="http://www.w3.org/2000/svg">
<path d="M2 2H37V46H2V2Z" stroke="black" stroke-width="4"/>
<path d="M20.2542 32V30.7661C23.3077 30.5017 25 28.9153 25 26.3301C25 24.1267 23.7676 22.7656 21.3487 22.2661L20.2542 22.0507V19.0052C21.0452 19.1423 21.6246 19.818 21.6522 20.5916H24.7425C24.7149 18.2609 22.9858 16.6158 20.2542 16.3416V15H18.9298V16.3318C15.959 16.5668 14.2483 18.1532 14.2483 20.6895C14.2483 22.8341 15.4808 24.2442 17.8353 24.7926L18.9298 25.0472V28.2005C17.9457 28.0927 17.2375 27.4171 17.1915 26.5553H14C14.0092 29.0622 15.8211 30.6192 18.9298 30.7857V32H20.2542ZM21.8545 26.7316C21.8545 27.5639 21.2567 28.1221 20.2542 28.2005V25.2823C21.3303 25.4977 21.8545 25.9775 21.8545 26.7316ZM17.4766 20.3566C17.4766 19.6025 18.0744 19.0444 18.9298 18.9856V21.7667C17.9824 21.5611 17.4766 21.0714 17.4766 20.3566Z" fill="#FD665E"/>
</svg>
